<svg aria-hidden="true" style="width:0;height:0;position:absolute;overflow:hidden" xmlns="http://www.w3.org/2000/svg"><defs><symbol id="icon-search" viewBox="0 0 32 32"><path d="m31.008 27.231-7.58-6.447c-.784-.705-1.622-1.029-2.299-.998a11.954 11.954 0 0 0 2.87-7.787c0-6.627-5.373-12-12-12s-12 5.373-12 12 5.373 12 12 12c2.972 0 5.691-1.081 7.787-2.87-.031.677.293 1.515.998 2.299l6.447 7.58c1.104 1.226 2.907 1.33 4.007.23s.997-2.903-.23-4.007zM12 20a8 8 0 1 1 0-16 8 8 0 0 1 0 16z"/></symbol><symbol id="icon-loop2" viewBox="0 0 32 32"><path d="M27.802 5.197A15.958 15.958 0 0 0 15.999 0c-8.837 0-16 7.163-16 16h3c0-7.18 5.82-13 13-13 3.844 0 7.298 1.669 9.678 4.322L20.999 12h11V1l-4.198 4.197zM29 16c0 7.18-5.82 13-13 13a12.965 12.965 0 0 1-9.678-4.322L11 20H0v11l4.197-4.197A15.958 15.958 0 0 0 16 32c8.837 0 16-7.163 16-16h-3z"/></symbol></defs></svg>